PathFileType	4	(X/Y/Z)	E:\Studenten\Marcel_BSc\Simon_27_12_2024\27-12-2024\static_00.trc
DataRate	CameraRate	NumFrames	NumMarkers	Units	OrigDataRate	OrigDataStartFrame	OrigNumFrames
200.0	200.0	5	63	mm	200.0	208	175	
Frame#	Time	FHD			LBHD			RBHD			RBAR			LBAR			RASI			RSACR			LSACR			LASI			USACR			C7			CLAV			T10			RSHO			LSHO			LTHI1			LTHI3			LTHI2			LTHI4			LLFC			LMFC			LTIB1			LTIB2			LTIB3			LTIB4			LMMAL			LLMAL			LHEE			LMT1			LMT5			LMT3			RTHI1			RTHI3			RTHI2			RTHI4			RLFC			RMFC			RTIB1			RTIB3			RTIB2			RTIB4			RLMAL			RMMAL			RHEE			RMT5			RMT1			RMT3			LMEP			LLEP			LDUPA			LMUPA			LUUPA			LUL			LRAD			LRFIN			RUL			RRAD			RUFIN			RMEP			RDUPA			RUUPA			RLEP			RMUPA			
		X1	Y1	Z1	X2	Y2	Z2	X3	Y3	Z3	X4	Y4	Z4	X5	Y5	Z5	X6	Y6	Z6	X7	Y7	Z7	X8	Y8	Z8	X9	Y9	Z9	X10	Y10	Z10	X11	Y11	Z11	X12	Y12	Z12	X13	Y13	Z13	X14	Y14	Z14	X15	Y15	Z15	X16	Y16	Z16	X17	Y17	Z17	X18	Y18	Z18	X19	Y19	Z19	X20	Y20	Z20	X21	Y21	Z21	X22	Y22	Z22	X23	Y23	Z23	X24	Y24	Z24	X25	Y25	Z25	X26	Y26	Z26	X27	Y27	Z27	X28	Y28	Z28	X29	Y29	Z29	X30	Y30	Z30	X31	Y31	Z31	X32	Y32	Z32	X33	Y33	Z33	X34	Y34	Z34	X35	Y35	Z35	X36	Y36	Z36	X37	Y37	Z37	X38	Y38	Z38	X39	Y39	Z39	X40	Y40	Z40	X41	Y41	Z41	X42	Y42	Z42	X43	Y43	Z43	X44	Y44	Z44	X45	Y45	Z45	X46	Y46	Z46	X47	Y47	Z47	X48	Y48	Z48	X49	Y49	Z49	X50	Y50	Z50	X51	Y51	Z51	X52	Y52	Z52	X53	Y53	Z53	X54	Y54	Z54	X55	Y55	Z55	X56	Y56	Z56	X57	Y57	Z57	X58	Y58	Z58	X59	Y59	Z59	X60	Y60	Z60	X61	Y61	Z61	X62	Y62	Z62	X63	Y63	Z63	
208	1.035	108.82803	1724.7472	-931.09424	278.95529	1698.6826	-852.15497	234.45221	1726.1425	-1004.9042	2013.7467	28.06868	-2007.8868	1903.429	23.711618	212.6011	158.85744	970.00385	-1062.5024	348.49957	976.96381	-958.39325	346.05457	972.92328	-916.12433	153.84445	974.53186	-813.45514	339.11472	985.61963	-933.24719	319.41135	1481.7572	-924.63184	163.83711	1432.0853	-925.35602	333.60883	1170.0247	-934.92889	299.681	1468.1808	-1086.2898	285.99319	1461.7482	-764.14099	222.53613	813.60425	-732.4837	189.83936	790.94659	-732.50446	237.01366	774.59418	-724.10449	191.73395	726.56079	-724.17175	261.15698	499.37598	-742.96619	236.19069	469.74634	-847.5675	319.85513	416.32214	-730.87689	296.10254	377.94858	-714.33899	343.07498	366.39676	-727.96643	309.07803	313.27737	-710.46057	251.61278	96.956421	-822.57062	282.04028	76.625961	-736.52753	331.12219	35.295467	-786.1153	111.37417	41.069653	-775.06653	155.19708	29.509321	-703.86121	128.86876	33.663811	-724.57507	209.6796	817.46411	-1143.3503	163.03809	781.85913	-1130.4214	210.39462	784.7099	-1148.5178	189.32283	721.93268	-1146.0892	256.49313	500.70245	-1124.5968	242.74675	482.88446	-1003.2246	307.11487	432.9801	-1136.855	340.08218	382.79382	-1142.4917	289.94183	385.61588	-1154.7197	312.6228	323.7247	-1155.4829	287.92889	82.847755	-1132.4847	248.54784	100.39346	-1050.099	328.46674	33.164345	-1073.8331	172.55814	28.865267	-1181.9393	119.32927	46.037182	-1119.4254	130.88605	35.008636	-1159.9695	214.99768	1296.1943	-501.70242	272.52612	1395.3937	-489.72324	305.46542	1389.2703	-564.13593	324.25851	1381.9709	-622.99664	297.99896	1422.615	-635.61707	226.66528	1364.9429	-232.90453	168.11729	1342.4561	-247.7384	157.77159	1352.6852	-153.51306	248.5778	1396.1512	-1608.1898	198.33261	1400.5135	-1593.0546	183.0491	1400.3901	-1698.0931	234.4455	1299.4623	-1358.0905	286.89026	1432.4048	-1284.6027	315.729	1426.1106	-1210.2915	284.9267	1402.3724	-1363.5634	322.13168	1400.9977	-1267.2112
209	1.04	108.96783	1724.8589	-931.0871	279.07306	1698.6327	-852.16058	234.58902	1726.1317	-1004.9193	2013.7319	28.092825	-2007.9181	1903.4603	23.671625	212.53722	158.84814	970.00702	-1062.4969	348.47321	976.96899	-958.38507	346.04703	972.93469	-916.12085	153.81305	974.53729	-813.43658	339.09671	985.61957	-933.24084	319.37567	1481.7891	-924.6098	163.80724	1432.0876	-925.34064	333.60294	1170.0239	-934.91425	299.64099	1468.2028	-1086.2871	285.96808	1461.7616	-764.13403	222.50313	813.60065	-732.47211	189.80342	790.95587	-732.49933	237.00554	774.58691	-724.08099	191.70451	726.57074	-724.22833	261.14355	499.3819	-742.95563	236.41266	469.69513	-847.31262	319.84528	416.33096	-730.86401	296.08859	377.94009	-714.33185	343.0694	366.34824	-727.99243	309.15005	313.14761	-710.51587	251.79762	97.148018	-822.55151	282.04037	76.629158	-736.51782	331.11935	35.284554	-786.11304	111.3627	41.075272	-775.06744	155.2019	29.511528	-703.86768	128.86069	33.666176	-724.5741	209.66794	817.46472	-1143.345	163.02856	781.8562	-1130.4326	210.40103	784.68762	-1148.5135	189.31017	721.92529	-1146.0863	256.48404	500.70685	-1124.5857	242.7364	482.88815	-1003.2137	307.10989	432.98102	-1136.8535	340.08032	382.78925	-1142.4763	289.97617	385.57031	-1154.4215	312.62268	323.72842	-1155.4752	287.93127	82.845581	-1132.4762	248.67137	100.37066	-1050.1354	328.46655	33.161049	-1073.8188	172.58604	28.858959	-1181.933	119.31941	46.032295	-1119.4193	130.95844	34.854431	-1159.9097	214.96582	1296.2521	-501.68298	272.51245	1395.4302	-489.70987	305.48105	1389.3102	-564.12134	324.23923	1382.0044	-623.00085	297.98026	1422.6322	-635.6203	226.6636	1364.999	-232.89345	168.1075	1342.5023	-247.72763	157.79126	1352.7289	-153.57576	248.56769	1396.2123	-1608.1957	198.32062	1400.5933	-1593.0663	183.0518	1400.4926	-1698.1017	234.38142	1299.5314	-1358.1023	286.85449	1432.4446	-1284.606	315.68765	1426.1465	-1210.2839	285.0416	1402.5664	-1363.6304	322.09219	1401.0411	-1267.2135
210	1.045	109.08899	1724.9729	-931.07098	279.1843	1698.5808	-852.16394	234.7151	1726.1213	-1004.9086	2013.7649	28.071508	-2007.8588	1903.3666	23.720346	212.65408	158.82751	970.00031	-1062.4929	348.44324	976.9715	-958.38623	346.02246	972.93378	-916.10687	153.78102	974.5343	-813.43713	339.05643	985.61731	-933.23364	319.36566	1481.7877	-924.60327	163.78851	1432.0912	-925.33087	333.58655	1170.0321	-934.92285	299.58951	1468.2173	-1086.2816	285.94336	1461.7694	-764.13452	222.46895	813.6048	-732.45697	189.77151	790.95068	-732.48358	236.96652	774.58203	-724.10272	191.6649	726.56	-724.15771	261.12512	499.37247	-742.96478	236.16064	469.74414	-847.54962	319.82556	416.33014	-730.83942	296.08072	377.94626	-714.33691	343.0495	366.37698	-727.95465	309.12756	313.12433	-710.61188	251.81743	97.166969	-822.55109	282.03384	76.631004	-736.5307	331.12137	35.296585	-786.12604	111.36334	41.074745	-775.05872	155.19962	29.511116	-703.85718	128.86305	33.661777	-724.58276	209.659	817.47217	-1143.3414	163.01425	781.854	-1130.4319	210.27898	784.93854	-1148.8129	189.28896	721.92407	-1146.0804	256.47849	500.71722	-1124.577	242.72864	482.88608	-1003.1977	307.09933	432.98682	-1136.8357	340.12958	382.77652	-1142.4867	289.97559	385.56473	-1154.3992	312.61804	323.73111	-1155.4808	287.93448	82.854683	-1132.4725	248.66318	100.36436	-1050.1316	328.46912	33.161991	-1073.8248	172.56578	28.8699	-1181.9457	119.32776	46.020977	-1119.4208	130.89554	34.983799	-1159.9512	214.98166	1296.2682	-501.66357	272.50177	1395.4653	-489.69745	305.45206	1389.3536	-564.12054	324.21832	1382.0287	-622.98895	297.9621	1422.652	-635.62396	226.64708	1365.056	-232.87502	168.10738	1342.5479	-247.70834	157.77687	1352.8037	-153.51425	248.57181	1396.4259	-1607.9955	198.30147	1400.6761	-1593.0739	183.04933	1400.5898	-1698.1132	234.31984	1299.5862	-1358.1144	286.81934	1432.4901	-1284.6104	315.65561	1426.1858	-1210.2881	285.11337	1402.6152	-1363.651	322.05386	1401.0743	-1267.203
211	1.05	109.24212	1725.0791	-931.07959	279.315	1698.5345	-852.17047	234.84697	1726.1088	-1004.9112	2013.7802	28.067259	-2007.8563	1903.3927	23.712368	212.60471	158.80586	970.00165	-1062.4762	348.41763	976.97559	-958.37976	345.99213	972.94189	-916.09619	153.75328	974.5199	-813.43591	339.03824	985.62097	-933.21393	319.34	1481.7887	-924.60919	163.76797	1432.0916	-925.3147	333.56979	1170.0394	-934.91327	299.55737	1468.2301	-1086.2766	285.91998	1461.7776	-764.13531	222.44704	813.60553	-732.448	189.74037	790.96381	-732.48077	236.93811	774.5838	-724.08362	191.63737	726.5589	-724.15533	261.10495	499.38303	-742.95093	236.38181	469.69846	-847.30157	319.80942	416.34467	-730.83936	296.06519	377.93484	-714.34674	343.02023	366.38815	-727.93079	309.1441	313.08984	-710.71326	251.80733	97.180717	-822.57819	282.03265	76.627243	-736.53186	331.11334	35.297291	-786.11694	111.36417	41.069576	-775.05939	155.19296	29.5072	-703.8587	128.8588	33.667385	-724.57452	209.64568	817.47357	-1143.3458	163.00804	781.854	-1130.4293	210.36902	784.71198	-1148.5085	189.29057	721.93402	-1146.0995	256.47217	500.70502	-1124.5676	242.71188	482.88901	-1003.1962	307.09509	432.99258	-1136.8342	340.07547	382.83026	-1142.4962	289.95535	385.56882	-1154.3903	312.62598	323.73273	-1155.4537	287.93976	82.859612	-1132.4661	248.64888	100.37673	-1050.1453	328.46683	33.156174	-1073.814	172.57338	28.873495	-1181.9348	119.32862	46.030231	-1119.4181	130.90115	34.979977	-1159.9502	214.95705	1296.2976	-501.64539	272.54901	1395.6025	-489.67465	305.43604	1389.3809	-564.11475	324.2002	1382.0497	-622.98828	297.94772	1422.6709	-635.61896	226.6376	1365.1068	-232.86852	168.09793	1342.5906	-247.69836	157.6828	1352.9259	-153.38579	248.55225	1396.4962	-1608.0122	198.2802	1400.7417	-1593.0874	183.05768	1400.6713	-1698.1279	234.2379	1299.6755	-1358.1254	286.78055	1432.535	-1284.6074	315.61041	1426.2203	-1210.2952	285.11389	1402.7433	-1363.7006	321.99408	1401.1119	-1267.2134
212	1.055	109.3857	1725.1852	-931.03973	279.42487	1698.4869	-852.18036	234.99301	1726.0967	-1004.9069	2013.7839	28.070959	-2007.8768	1903.458	23.614027	212.51013	158.78093	969.99701	-1062.4778	348.40131	976.97949	-958.35095	345.96048	972.94623	-916.08459	153.71468	974.51904	-813.42426	339.00351	985.61957	-933.21112	319.06171	1481.7147	-924.61755	163.7339	1432.0952	-925.30304	333.54733	1170.0333	-934.91754	299.52136	1468.2404	-1086.275	285.89133	1461.7859	-764.13654	222.4137	813.59705	-732.43903	189.72615	790.95422	-732.48511	236.91142	774.5943	-724.07147	191.62082	726.55042	-724.1427	261.09436	499.37946	-742.95142	236.13182	469.74683	-847.55298	319.80292	416.33762	-730.85126	296.06448	377.93927	-714.34644	343.02158	366.43408	-727.87427	309.14807	313.07059	-710.77704	251.73175	97.043068	-822.4162	282.03152	76.632919	-736.53619	331.11264	35.288948	-786.11755	111.3615	41.073544	-775.06238	155.19998	29.515144	-703.85162	128.86409	33.673004	-724.57458	209.63208	817.47693	-1143.3467	162.98245	781.8587	-1130.4301	210.35876	784.70337	-1148.5203	189.2592	721.93298	-1146.1003	256.47418	500.71765	-1124.5625	242.70392	482.89526	-1003.1874	307.08521	432.98816	-1136.816	340.07263	382.81189	-1142.463	289.96725	385.57028	-1154.3707	312.62842	323.74747	-1155.4463	287.93329	82.857048	-1132.4653	248.68398	100.35495	-1050.1122	328.46643	33.16412	-1073.8212	172.57202	28.882732	-1181.9359	119.32178	46.020744	-1119.4185	130.89926	34.983433	-1159.9506	214.95801	1296.3058	-501.63443	272.53922	1395.6416	-489.65784	305.41669	1389.4211	-564.11157	324.17883	1382.0688	-622.98535	297.92648	1422.6974	-635.61969	226.63322	1365.1592	-232.86168	168.09187	1342.6479	-247.68806	157.70596	1352.9797	-153.42712	248.52594	1396.5533	-1608.0299	198.25867	1400.8246	-1593.1035	183.05666	1400.7743	-1698.1405	234.18752	1299.707	-1358.151	286.73401	1432.5706	-1284.6047	315.565	1426.2391	-1210.2933	285.05951	1402.7905	-1363.7001	321.94507	1401.1333	-1267.2078
